<?xml version="1.0" standalone="no"?>
<!DOCTYPE svg PUBLIC "-//W3C//DTD SVG 20010904//EN"
 "http://www.w3.org/TR/2001/REC-SVG-20010904/DTD/svg10.dtd">
<svg version="1.0" xmlns="http://www.w3.org/2000/svg"
 width="512.000000pt" height="365.000000pt" viewBox="0 0 512.000000 365.000000"
 preserveAspectRatio="xMidYMid meet">

<g transform="translate(0.000000,365.000000) scale(0.100000,-0.100000)"
fill="#000000" stroke="none">
<path d="M2592 3483 l3 -168 750 -5 c813 -6 781 -4 918 -62 238 -101 425 -315
493 -563 22 -80 30 -278 15 -358 -56 -293 -247 -530 -517 -638 -154 -62 -52
-59 -1909 -59 l-1700 0 530 530 530 530 -115 115 c-63 63 -118 115 -123 115
-4 0 -336 -330 -737 -732 l-729 -733 727 -727 c400 -401 732 -728 737 -728 6
0 62 52 125 115 l115 115 -530 530 -530 530 1690 0 c1853 0 1792 -2 1975 60
385 129 677 447 778 849 23 93 26 126 26 271 0 145 -3 178 -26 271 -58 229
-157 403 -327 569 -193 188 -402 292 -666 330 -41 5 -366 10 -788 10 l-717 0
2 -167z"/>
</g>
</svg>
